<?xml version="1.0" encoding="UTF-8" standalone="no"?>
<!-- Created with Inkscape (http://www.inkscape.org/) -->

<svg
   xmlns:dc="http://purl.org/dc/elements/1.1/"
   xmlns:cc="http://creativecommons.org/ns#"
   xmlns:rdf="http://www.w3.org/1999/02/22-rdf-syntax-ns#"
   xmlns:svg="http://www.w3.org/2000/svg"
   xmlns="http://www.w3.org/2000/svg"
   xmlns:xlink="http://www.w3.org/1999/xlink"
   xmlns:sodipodi="http://sodipodi.sourceforge.net/DTD/sodipodi-0.dtd"
   xmlns:inkscape="http://www.inkscape.org/namespaces/inkscape"
   sodipodi:docname="feature.final.svg"
   inkscape:version="0.91 r13725"
   version="1.1"
   id="svg3839"
   height="500"
   width="1024">
  <defs
     id="defs3841">
    <linearGradient
       inkscape:collect="always"
       id="linearGradient10332">
      <stop
         style="stop-color:#000000;stop-opacity:0.75"
         offset="0"
         id="stop10334" />
      <stop
         style="stop-color:#000000;stop-opacity:1"
         offset="1"
         id="stop10336" />
    </linearGradient>
    <linearGradient
       id="linearGradient3804">
      <stop
         style="stop-color:#ffffff;stop-opacity:0.1"
         offset="0"
         id="stop3806" />
      <stop
         id="stop3814"
         offset="0.33333333"
         style="stop-color:#ffffff;stop-opacity:0.066" />
      <stop
         style="stop-color:#ffffff;stop-opacity:0;"
         offset="1"
         id="stop3808" />
    </linearGradient>
    <linearGradient
       inkscape:collect="always"
       xlink:href="#linearGradient3804"
       id="linearGradient6901"
       x1="34"
       y1="-10"
       x2="72"
       y2="28"
       gradientUnits="userSpaceOnUse"
       gradientTransform="matrix(6,0,0,6,193.99999,-306.00001)"
       spreadMethod="pad" />
    <filter
       style="color-interpolation-filters:sRGB"
       inkscape:label="Drop Shadow"
       id="filter4945">
      <feFlood
         flood-opacity="0.2"
         flood-color="rgb(0,0,0)"
         result="flood"
         id="feFlood4947" />
      <feComposite
         in="flood"
         in2="SourceGraphic"
         operator="in"
         result="composite1"
         id="feComposite4949" />
      <feGaussianBlur
         in="composite1"
         stdDeviation="1"
         result="blur"
         id="feGaussianBlur4951" />
      <feOffset
         dx="0"
         dy="1"
         result="offset"
         id="feOffset4953" />
      <feComposite
         in="SourceGraphic"
         in2="offset"
         operator="over"
         result="composite2"
         id="feComposite4955" />
    </filter>
    <radialGradient
       inkscape:collect="always"
       xlink:href="#linearGradient10332"
       id="radialGradient10338"
       cx="512"
       cy="250"
       fx="512"
       fy="250"
       r="512"
       gradientTransform="matrix(1,0,0,0.48828125,0,127.92969)"
       gradientUnits="userSpaceOnUse" />
  </defs>
  <sodipodi:namedview
     inkscape:window-maximized="1"
     inkscape:window-y="24"
     inkscape:window-x="0"
     inkscape:window-height="1056"
     inkscape:window-width="1920"
     inkscape:guide-bbox="true"
     showguides="true"
     inkscape:snap-global="true"
     inkscape:document-units="px"
     inkscape:grid-bbox="true"
     showgrid="true"
     inkscape:current-layer="layer5"
     inkscape:cy="303.29792"
     inkscape:cx="610.82125"
     inkscape:zoom="1.4651827"
     inkscape:pageshadow="2"
     inkscape:pageopacity="1"
     borderopacity="1.0"
     bordercolor="#666666"
     pagecolor="#ffffff"
     id="base"
     units="px"
     fit-margin-left="0"
     fit-margin-bottom="0">
    <inkscape:grid
       type="xygrid"
       id="grid3847" />
  </sodipodi:namedview>
  <metadata
     id="metadata3844">
    <rdf:RDF>
      <cc:Work
         rdf:about="">
        <dc:format>image/svg+xml</dc:format>
        <dc:type
           rdf:resource="http://purl.org/dc/dcmitype/StillImage" />
        <dc:title />
      </cc:Work>
    </rdf:RDF>
  </metadata>
  <g
     inkscape:groupmode="layer"
     id="layer5"
     inkscape:label="Background">
    <rect
       style="opacity:1;fill:url(#radialGradient10338);fill-opacity:1;fill-rule:evenodd;stroke:none;stroke-opacity:1"
       id="rect9655"
       width="1024"
       height="500"
       x="0"
       y="0" />
  </g>
  <g
     id="layer1"
     inkscape:label="Icon Background"
     inkscape:groupmode="layer"
     transform="translate(0,484)"
     style="display:inline">
    <rect
       style="fill:#4caf50;fill-opacity:1;fill-rule:evenodd;stroke:none;filter:url(#filter4945)"
       id="rect4151"
       width="38"
       height="38"
       x="5"
       y="-27"
       rx="3"
       transform="matrix(6,0,0,6,367.99999,-236.00001)" />
  </g>
  <g
     inkscape:groupmode="layer"
     id="layer6"
     inkscape:label="Icon Foreground Shade"
     style="display:inline"
     transform="translate(0,452)">
    <path
       style="display:inline;opacity:0.2;fill:#546e7a;fill-opacity:1;fill-rule:evenodd;stroke:none;stroke-width:1px;stroke-linecap:butt;stroke-linejoin:miter;stroke-opacity:1"
       d="m 503.74846,-190.50001 -4.49999,-33 c -2.25,-16.5 -2.25,-16.5 -8.24999,-16.5 l -47.99997,0 c -5.99999,0 -5.99999,0 -8.24999,16.5 l -4.5,33 c -2.25,16.5 -2.25,16.5 3.75,16.5 l 65.99994,0 c 6,0 6,0 3.75,-16.5 z"
       id="path4663-78-6"
       inkscape:connector-curvature="0"
       sodipodi:nodetypes="ccccccccc" />
    <path
       style="display:inline;opacity:0.2;fill:#546e7a;fill-opacity:1;fill-rule:evenodd;stroke:none;stroke-width:1px;stroke-linecap:butt;stroke-linejoin:miter;stroke-opacity:1"
       d="m 593.74846,-190.50001 -4.49999,-33 c -2.25,-16.5 -2.25,-16.5 -8.24999,-16.5 l -47.99997,0 c -5.99999,0 -5.99999,0 -8.24999,16.5 l -4.5,33 c -2.25,16.5 -2.25,16.5 3.75,16.5 l 65.99994,0 c 6,0 6,0 3.75,-16.5 z"
       id="path4663-7-1-8"
       inkscape:connector-curvature="0"
       sodipodi:nodetypes="ccccccccc" />
    <path
       style="display:inline;opacity:0.2;fill:#546e7a;fill-opacity:1;fill-rule:evenodd;stroke:none;stroke-width:1px;stroke-linecap:butt;stroke-linejoin:miter;stroke-opacity:1"
       d="m 548.74846,-268.50001 -4.49999,-33 c -2.25,-16.5 -2.25,-16.5 -8.24999,-16.5 l -47.99997,0 c -5.99999,0 -5.99999,0 -8.24999,16.5 l -4.5,33 c -2.25,16.5 -2.25,16.5 3.75,16.5 l 65.99994,0 c 6,0 6,0 3.75,-16.5 z"
       id="path4663-1-2-3"
       inkscape:connector-curvature="0"
       sodipodi:nodetypes="ccccccccc" />
  </g>
  <g
     inkscape:groupmode="layer"
     id="layer4"
     inkscape:label="Icon Foreground Tint"
     style="display:inline"
     transform="translate(0,452)">
    <path
       style="display:inline;opacity:0.2;fill:#8097a2;fill-opacity:1;fill-rule:evenodd;stroke:none;stroke-width:1px;stroke-linecap:butt;stroke-linejoin:miter;stroke-opacity:1"
       d="m 503.74846,-202.50001 -4.49999,-33 c -2.25,-16.5 -2.25,-16.5 -8.24999,-16.5 l -47.99997,0 c -5.99999,0 -5.99999,0 -8.24999,16.5 l -4.5,33 c -2.25,16.5 -2.25,16.5 3.75,16.5 l 65.99994,0 c 6,0 6,0 3.75,-16.5 z"
       id="path4663-78"
       inkscape:connector-curvature="0"
       sodipodi:nodetypes="ccccccccc" />
    <path
       style="display:inline;opacity:0.2;fill:#8097a2;fill-opacity:1;fill-rule:evenodd;stroke:none;stroke-width:1px;stroke-linecap:butt;stroke-linejoin:miter;stroke-opacity:1"
       d="m 593.74846,-202.50001 -4.49999,-33 c -2.25,-16.5 -2.25,-16.5 -8.24999,-16.5 l -47.99997,0 c -5.99999,0 -5.99999,0 -8.24999,16.5 l -4.5,33 c -2.25,16.5 -2.25,16.5 3.75,16.5 l 65.99994,0 c 6,0 6,0 3.75,-16.5 z"
       id="path4663-7-1"
       inkscape:connector-curvature="0"
       sodipodi:nodetypes="ccccccccc" />
    <path
       style="display:inline;opacity:0.2;fill:#8097a2;fill-opacity:1;fill-rule:evenodd;stroke:none;stroke-width:1px;stroke-linecap:butt;stroke-linejoin:miter;stroke-opacity:1"
       d="m 548.74846,-280.50001 -4.49999,-33 c -2.25,-16.5 -2.25,-16.5 -8.24999,-16.5 l -47.99997,0 c -5.99999,0 -5.99999,0 -8.24999,16.5 l -4.5,33 c -2.25,16.5 -2.25,16.5 3.75,16.5 l 65.99994,0 c 6,0 6,0 3.75,-16.5 z"
       id="path4663-1-2"
       inkscape:connector-curvature="0"
       sodipodi:nodetypes="ccccccccc" />
  </g>
  <g
     inkscape:groupmode="layer"
     id="layer3"
     inkscape:label="Icon Foreground Shadow"
     style="display:inline"
     transform="translate(0,452)">
    <path
       style="display:inline;opacity:0.2;fill:#263238;fill-opacity:1;fill-rule:evenodd;stroke:none"
       d="m 625.99999,-156.00001 c 0,4.97057 -2.01471,9.47057 -5.27208,12.72792 -3.25735,3.25737 -7.75735,5.27208 -12.72792,5.27208 l -138,0 -42,-42 57,-66 -12,-12 69,-66 84,78 z"
       id="path4360"
       inkscape:connector-curvature="0"
       sodipodi:nodetypes="cscccccccc" />
  </g>
  <g
     inkscape:groupmode="layer"
     id="layer2"
     inkscape:label="Icon Foreground"
     transform="translate(0,400)"
     style="display:inline">
    <path
       style="fill:#ffd700;fill-opacity:1;fill-rule:evenodd;stroke:none;stroke-width:1px;stroke-linecap:butt;stroke-linejoin:miter;stroke-opacity:1"
       d="m 503.74846,-144.50001 -4.49999,-33 c -2.25,-16.5 -2.25,-16.5 -8.24999,-16.5 l -47.99997,0 c -5.99999,0 -5.99999,0 -8.24999,16.5 l -4.5,33 c -2.25,16.5 -2.25,16.5 3.75,16.5 l 65.99994,0 c 6,0 6,0 3.75,-16.5 z"
       id="path4663"
       inkscape:connector-curvature="0"
       sodipodi:nodetypes="ccccccccc" />
    <path
       style="display:inline;fill:#ffd700;fill-opacity:1;fill-rule:evenodd;stroke:none;stroke-width:1px;stroke-linecap:butt;stroke-linejoin:miter;stroke-opacity:1"
       d="m 593.74846,-144.50001 -4.49999,-33 c -2.25,-16.5 -2.25,-16.5 -8.24999,-16.5 l -47.99997,0 c -5.99999,0 -5.99999,0 -8.24999,16.5 l -4.5,33 c -2.25,16.5 -2.25,16.5 3.75,16.5 l 65.99994,0 c 6,0 6,0 3.75,-16.5 z"
       id="path4663-7"
       inkscape:connector-curvature="0"
       sodipodi:nodetypes="ccccccccc" />
    <path
       style="display:inline;fill:#ffd700;fill-opacity:1;fill-rule:evenodd;stroke:none;stroke-width:1px;stroke-linecap:butt;stroke-linejoin:miter;stroke-opacity:1"
       d="m 548.74846,-222.50001 -4.49999,-33 c -2.25,-16.5 -2.25,-16.5 -8.24999,-16.5 l -47.99997,0 c -5.99999,0 -5.99999,0 -8.24999,16.5 l -4.5,33 c -2.25,16.5 -2.25,16.5 3.75,16.5 l 65.99994,0 c 6,0 6,0 3.75,-16.5 z"
       id="path4663-1"
       inkscape:connector-curvature="0"
       sodipodi:nodetypes="ccccccccc" />
  </g>
  <g
     inkscape:groupmode="layer"
     id="layer9"
     inkscape:label="Icon Finish"
     style="display:inline"
     transform="translate(0,452)">
    <rect
       style="display:inline;opacity:0.2;fill:url(#linearGradient6901);fill-opacity:1;fill-rule:evenodd;stroke:none"
       id="rect4151-4"
       width="228"
       height="228"
       x="398"
       y="-366"
       rx="18" />
  </g>
  <g
     inkscape:groupmode="layer"
     id="layer7"
     inkscape:label="Liquidity">
    <text
       xml:space="preserve"
       style="font-style:normal;font-weight:normal;font-size:90px;line-height:125%;font-family:Sans;letter-spacing:0px;word-spacing:0px;fill:#ffffff;fill-opacity:1;stroke:none;stroke-width:1px;stroke-linecap:butt;stroke-linejoin:miter;stroke-opacity:1"
       x="286.16528"
       y="420.57617"
       id="text9666"
       sodipodi:linespacing="125%"><tspan
         sodipodi:role="line"
         id="tspan9668"
         x="286.16528"
         y="420.57617"
         style="font-style:normal;font-variant:normal;font-weight:bold;font-stretch:normal;font-family:sans-serif;-inkscape-font-specification:'sans-serif Bold'">Liquidity</tspan></text>
  </g>
</svg>
