<?xml version="1.0" encoding="UTF-8" standalone="no"?>
<!-- Created with Inkscape (http://www.inkscape.org/) -->

<svg
   xmlns:dc="http://purl.org/dc/elements/1.1/"
   xmlns:cc="http://creativecommons.org/ns#"
   xmlns:rdf="http://www.w3.org/1999/02/22-rdf-syntax-ns#"
   xmlns:svg="http://www.w3.org/2000/svg"
   xmlns="http://www.w3.org/2000/svg"
   xmlns:xlink="http://www.w3.org/1999/xlink"
   xmlns:sodipodi="http://sodipodi.sourceforge.net/DTD/sodipodi-0.dtd"
   xmlns:inkscape="http://www.inkscape.org/namespaces/inkscape"
   sodipodi:docname="icon.svg"
   inkscape:version="0.91 r13725"
   version="1.1"
   id="svg3839"
   height="48"
   width="48">
  <defs
     id="defs3841">
    <inkscape:path-effect
       effect="bend_path"
       id="path-effect4230"
       is_visible="true"
       bendpath="m 20,-34 35,0"
       prop_scale="1"
       scale_y_rel="false"
       vertical="false" />
    <linearGradient
       id="linearGradient3804">
      <stop
         style="stop-color:#ffffff;stop-opacity:0.1"
         offset="0"
         id="stop3806" />
      <stop
         id="stop3814"
         offset="0.33333333"
         style="stop-color:#ffffff;stop-opacity:0.066" />
      <stop
         style="stop-color:#ffffff;stop-opacity:0;"
         offset="1"
         id="stop3808" />
    </linearGradient>
    <linearGradient
       inkscape:collect="always"
       xlink:href="#linearGradient3804"
       id="linearGradient6901"
       x1="34"
       y1="-10"
       x2="72"
       y2="28"
       gradientUnits="userSpaceOnUse"
       gradientTransform="translate(-29,15)"
       spreadMethod="pad" />
    <filter
       style="color-interpolation-filters:sRGB;"
       inkscape:label="Drop Shadow"
       id="filter4945">
      <feFlood
         flood-opacity="0.2"
         flood-color="rgb(0,0,0)"
         result="flood"
         id="feFlood4947" />
      <feComposite
         in="flood"
         in2="SourceGraphic"
         operator="in"
         result="composite1"
         id="feComposite4949" />
      <feGaussianBlur
         in="composite1"
         stdDeviation="1"
         result="blur"
         id="feGaussianBlur4951" />
      <feOffset
         dx="0"
         dy="1"
         result="offset"
         id="feOffset4953" />
      <feComposite
         in="SourceGraphic"
         in2="offset"
         operator="over"
         result="composite2"
         id="feComposite4955" />
    </filter>
  </defs>
  <sodipodi:namedview
     inkscape:window-maximized="1"
     inkscape:window-y="24"
     inkscape:window-x="0"
     inkscape:window-height="1056"
     inkscape:window-width="1920"
     inkscape:guide-bbox="true"
     showguides="true"
     inkscape:snap-global="true"
     inkscape:document-units="px"
     inkscape:grid-bbox="true"
     showgrid="true"
     inkscape:current-layer="layer1"
     inkscape:cy="23.392141"
     inkscape:cx="23.793517"
     inkscape:zoom="19.71358"
     inkscape:pageshadow="2"
     inkscape:pageopacity="0"
     borderopacity="1.0"
     bordercolor="#666666"
     pagecolor="#ffffff"
     id="base"
     units="px"
     fit-margin-left="0"
     fit-margin-bottom="0">
    <inkscape:grid
       type="xygrid"
       id="grid3847" />
  </sodipodi:namedview>
  <metadata
     id="metadata3844">
    <rdf:RDF>
      <cc:Work
         rdf:about="">
        <dc:format>image/svg+xml</dc:format>
        <dc:type
           rdf:resource="http://purl.org/dc/dcmitype/StillImage" />
        <dc:title />
      </cc:Work>
    </rdf:RDF>
  </metadata>
  <g
     inkscape:groupmode="layer"
     id="layer8"
     inkscape:label="Background Shade"
     style="display:inline">
    <rect
       rx="3"
       y="6"
       x="5"
       height="38"
       width="38"
       id="rect5011"
       style="display:inline;opacity:0.2;fill:#546e7a;fill-opacity:1;fill-rule:evenodd;stroke:none" />
  </g>
  <g
     inkscape:groupmode="layer"
     id="layer5"
     inkscape:label="Background Tint"
     style="display:inline">
    <rect
       rx="3"
       y="4"
       x="5"
       height="38"
       width="38"
       id="rect4989"
       style="display:inline;opacity:0.2;fill:#ffffff;fill-opacity:1;fill-rule:evenodd;stroke:none" />
  </g>
  <g
     id="layer1"
     inkscape:label="Background"
     inkscape:groupmode="layer"
     transform="translate(0,32)"
     style="display:inline">
    <rect
       style="fill:#607d8b;fill-opacity:1;fill-rule:evenodd;stroke:none;filter:url(#filter4945)"
       id="rect4151"
       width="38"
       height="38"
       x="5"
       y="-27"
       rx="3" />
  </g>
  <g
     inkscape:groupmode="layer"
     id="layer6"
     inkscape:label="Foreground Shade"
     style="display:inline">
    <path
       style="display:inline;opacity:0.2;fill:#546e7a;fill-opacity:1;fill-rule:evenodd;stroke:none;stroke-width:1px;stroke-linecap:butt;stroke-linejoin:miter;stroke-opacity:1"
       d="m 22.624745,34.25 -0.749999,-5.5 C 21.499746,26 21.499746,26 20.499747,26 l -7.999994,0 c -0.999999,0 -0.999999,0 -1.374999,2.75 l -0.749999,5.5 C 9.9997551,37 9.9997551,37 10.999754,37 l 10.999991,0 c 1,0 1,0 0.625,-2.75 z"
       id="path4663-78-6"
       inkscape:connector-curvature="0"
       sodipodi:nodetypes="ccccccccc" />
    <path
       style="display:inline;opacity:0.2;fill:#546e7a;fill-opacity:1;fill-rule:evenodd;stroke:none;stroke-width:1px;stroke-linecap:butt;stroke-linejoin:miter;stroke-opacity:1"
       d="m 37.624745,34.25 -0.749999,-5.5 C 36.499746,26 36.499746,26 35.499747,26 l -7.999994,0 c -0.999999,0 -0.999999,0 -1.374999,2.75 l -0.749999,5.5 c -0.375,2.75 -0.375,2.75 0.624999,2.75 l 10.999991,0 c 1,0 1,0 0.625,-2.75 z"
       id="path4663-7-1-8"
       inkscape:connector-curvature="0"
       sodipodi:nodetypes="ccccccccc" />
    <path
       style="display:inline;opacity:0.2;fill:#546e7a;fill-opacity:1;fill-rule:evenodd;stroke:none;stroke-width:1px;stroke-linecap:butt;stroke-linejoin:miter;stroke-opacity:1"
       d="m 30.124745,21.25 -0.749999,-5.5 C 28.999746,13 28.999746,13 27.999747,13 l -7.999994,0 c -0.999999,0 -0.999999,0 -1.374999,2.75 l -0.749999,5.5 c -0.375,2.75 -0.375,2.75 0.624999,2.75 l 10.999991,0 c 1,0 1,0 0.625,-2.75 z"
       id="path4663-1-2-3"
       inkscape:connector-curvature="0"
       sodipodi:nodetypes="ccccccccc" />
  </g>
  <g
     inkscape:groupmode="layer"
     id="layer4"
     inkscape:label="Foreground Tint"
     style="display:inline">
    <path
       style="display:inline;fill:#8097a2;fill-opacity:1;fill-rule:evenodd;stroke:none;stroke-width:1px;stroke-linecap:butt;stroke-linejoin:miter;stroke-opacity:1;opacity:0.2"
       d="m 22.624745,32.25 -0.749999,-5.5 C 21.499746,24 21.499746,24 20.499747,24 l -7.999994,0 c -0.999999,0 -0.999999,0 -1.374999,2.75 l -0.749999,5.5 C 9.9997551,35 9.9997551,35 10.999754,35 l 10.999991,0 c 1,0 1,0 0.625,-2.75 z"
       id="path4663-78"
       inkscape:connector-curvature="0"
       sodipodi:nodetypes="ccccccccc" />
    <path
       style="display:inline;fill:#8097a2;fill-opacity:1;fill-rule:evenodd;stroke:none;stroke-width:1px;stroke-linecap:butt;stroke-linejoin:miter;stroke-opacity:1;opacity:0.2"
       d="m 37.624745,32.25 -0.749999,-5.5 C 36.499746,24 36.499746,24 35.499747,24 l -7.999994,0 c -0.999999,0 -0.999999,0 -1.374999,2.75 l -0.749999,5.5 c -0.375,2.75 -0.375,2.75 0.624999,2.75 l 10.999991,0 c 1,0 1,0 0.625,-2.75 z"
       id="path4663-7-1"
       inkscape:connector-curvature="0"
       sodipodi:nodetypes="ccccccccc" />
    <path
       style="display:inline;fill:#8097a2;fill-opacity:1;fill-rule:evenodd;stroke:none;stroke-width:1px;stroke-linecap:butt;stroke-linejoin:miter;stroke-opacity:1;opacity:0.2"
       d="m 30.124745,19.25 -0.749999,-5.5 C 28.999746,11 28.999746,11 27.999747,11 l -7.999994,0 c -0.999999,0 -0.999999,0 -1.374999,2.75 l -0.749999,5.5 c -0.375,2.75 -0.375,2.75 0.624999,2.75 l 10.999991,0 c 1,0 1,0 0.625,-2.75 z"
       id="path4663-1-2"
       inkscape:connector-curvature="0"
       sodipodi:nodetypes="ccccccccc" />
  </g>
  <g
     inkscape:groupmode="layer"
     id="layer3"
     inkscape:label="Foreground Shadow"
     style="display:inline">
    <path
       transform="translate(0,32)"
       style="display:inline;opacity:0.2;fill:#263238;fill-opacity:1;fill-rule:evenodd;stroke:none"
       d="M 43,8 C 43,8.8284271 42.664214,9.5784271 42.12132,10.12132 41.578427,10.664214 40.828427,11 40,11 L 17,11 10,4 19.5,-7 17.5,-9 29,-20 43,-7 Z"
       id="path4360"
       inkscape:connector-curvature="0"
       sodipodi:nodetypes="cscccccccc" />
  </g>
  <g
     inkscape:groupmode="layer"
     id="layer2"
     inkscape:label="Foreground"
     transform="translate(0,-52)"
     style="display:inline">
    <path
       style="fill:#ffd700;fill-opacity:1;fill-rule:evenodd;stroke:none;stroke-width:1px;stroke-linecap:butt;stroke-linejoin:miter;stroke-opacity:1"
       d="m 22.624745,85.25 -0.749999,-5.5 C 21.499746,77 21.499746,77 20.499747,77 l -7.999994,0 c -0.999999,0 -0.999999,0 -1.374999,2.75 l -0.749999,5.5 C 9.9997551,88 9.9997551,88 10.999754,88 l 10.999991,0 c 1,0 1,0 0.625,-2.75 z"
       id="path4663"
       inkscape:connector-curvature="0"
       sodipodi:nodetypes="ccccccccc" />
    <path
       style="display:inline;fill:#ffd700;fill-opacity:1;fill-rule:evenodd;stroke:none;stroke-width:1px;stroke-linecap:butt;stroke-linejoin:miter;stroke-opacity:1"
       d="m 37.624745,85.25 -0.749999,-5.5 C 36.499746,77 36.499746,77 35.499747,77 l -7.999994,0 c -0.999999,0 -0.999999,0 -1.374999,2.75 l -0.749999,5.5 c -0.375,2.75 -0.375,2.75 0.624999,2.75 l 10.999991,0 c 1,0 1,0 0.625,-2.75 z"
       id="path4663-7"
       inkscape:connector-curvature="0"
       sodipodi:nodetypes="ccccccccc" />
    <path
       style="display:inline;fill:#ffd700;fill-opacity:1;fill-rule:evenodd;stroke:none;stroke-width:1px;stroke-linecap:butt;stroke-linejoin:miter;stroke-opacity:1"
       d="m 30.124745,72.25 -0.749999,-5.5 C 28.999746,64 28.999746,64 27.999747,64 l -7.999994,0 c -0.999999,0 -0.999999,0 -1.374999,2.75 l -0.749999,5.5 c -0.375,2.75 -0.375,2.75 0.624999,2.75 l 10.999991,0 c 1,0 1,0 0.625,-2.75 z"
       id="path4663-1"
       inkscape:connector-curvature="0"
       sodipodi:nodetypes="ccccccccc" />
  </g>
  <g
     inkscape:groupmode="layer"
     id="layer9"
     inkscape:label="Finish"
     style="display:inline">
    <rect
       style="display:inline;opacity:0.2;fill:url(#linearGradient6901);fill-opacity:1;fill-rule:evenodd;stroke:none"
       id="rect4151-4"
       width="38"
       height="38"
       x="5"
       y="5"
       rx="3" />
  </g>
</svg>
